<svg width="10" height="11" viewBox="0 0 10 11" fill="none" xmlns="http://www.w3.org/2000/svg">
<path fill-rule="evenodd" clip-rule="evenodd" d="M6.53878 3.67231C6.79912 3.93266 6.79912 4.35478 6.53878 4.61512L1.20546 9.94845C0.945103 10.2088 0.522996 10.2088 0.262643 9.94845C0.00229615 9.68812 0.00229615 9.26598 0.262643 9.00565L5.59598 3.67231C5.85632 3.41196 6.27845 3.41196 6.53878 3.67231Z" fill="#FAFAFA"/>
<path fill-rule="evenodd" clip-rule="evenodd" d="M9.20612 1.00563C9.35452 1.15401 9.42439 1.36359 9.39465 1.57132L8.72798 6.23796C8.69232 6.48796 8.51845 6.6963 8.27885 6.77616C8.03932 6.85603 7.77518 6.79363 7.59665 6.6151L3.59665 2.61511C3.41812 2.43655 3.35574 2.17244 3.43558 1.93288C3.51545 1.69333 3.72378 1.51945 3.97378 1.48374L8.64045 0.81707C8.84818 0.787397 9.05772 0.857257 9.20612 1.00563Z" fill="#FAFAFA"/>
</svg>
